<svg width="896" height="896" viewBox="0 0 896 896" fill="none" xmlns="http://www.w3.org/2000/svg">
<path d="M651.299 248.989C670.299 230.089 670.299 199.289 651.299 180.389L581.399 110.489L581.499 110.589C562.999 92.0886 531.199 60.2886 486.199 15.3886C464.999 -5.3114 430.699 -5.1114 409.699 15.8886L15.8992 409.389C10.8608 414.393 6.86215 420.344 4.13347 426.9C1.40479 433.456 0 440.487 0 447.589C0 454.69 1.40479 461.721 4.13347 468.277C6.86215 474.833 10.8608 480.784 15.8992 485.789L409.599 879.189C419.75 889.322 433.506 895.013 447.849 895.013C462.192 895.013 475.949 889.322 486.099 879.189L651.199 714.189C670.199 695.289 670.199 664.489 651.199 645.589C642.073 636.508 629.723 631.411 616.849 631.411C603.975 631.411 591.625 636.508 582.499 645.589L457.499 770.789C452.299 775.989 444.199 775.989 438.999 770.789L124.499 456.589C119.299 451.389 119.299 443.289 124.499 438.089L438.899 123.889C439.299 123.489 439.799 123.189 440.199 122.789C445.399 118.689 452.599 119.089 457.399 123.889L582.599 248.989C601.599 267.989 632.399 267.989 651.299 248.989ZM343.599 449.589C343.599 477.755 354.799 504.767 374.734 524.683C394.669 544.6 421.707 555.789 449.899 555.789C478.092 555.789 505.13 544.6 525.065 524.683C545 504.767 556.199 477.755 556.199 449.589C556.199 421.423 545 394.41 525.065 374.494C505.13 354.578 478.092 343.389 449.899 343.389C421.707 343.389 394.669 354.578 374.734 374.494C354.799 394.41 343.599 421.423 343.599 449.589ZM879.799 410.989L756.899 288.689C737.899 269.789 707.099 269.789 688.199 288.789C683.682 293.286 680.098 298.631 677.652 304.517C675.206 310.403 673.947 316.714 673.947 323.089C673.947 329.463 675.206 335.774 677.652 341.66C680.098 347.546 683.682 352.891 688.199 357.389L771.199 440.289C776.399 445.489 776.399 453.589 771.199 458.789L689.399 540.489C684.882 544.986 681.298 550.331 678.852 556.217C676.406 562.103 675.147 568.414 675.147 574.789C675.147 581.163 676.406 587.474 678.852 593.36C681.298 599.246 684.882 604.591 689.399 609.089C698.525 618.169 710.875 623.267 723.749 623.267C736.623 623.267 748.973 618.169 758.099 609.089L879.899 487.389C884.92 482.372 888.902 476.413 891.615 469.854C894.328 463.296 895.72 456.266 895.711 449.168C895.702 442.07 894.291 435.044 891.561 428.492C888.83 421.941 884.833 415.992 879.799 410.989Z" fill="black"/>
</svg>
