<svg width="20" height="24" viewBox="0 0 20 24" fill="none" xmlns="http://www.w3.org/2000/svg">
<path d="M5.961 20.162C4.775 19.092 4.429 16.846 4.923 15.218C5.779 16.244 6.966 16.57 8.195 16.753C10.092 17.036 11.955 16.93 13.717 16.075C13.919 15.977 14.105 15.846 14.325 15.715C14.491 16.188 14.534 16.665 14.476 17.152C14.336 18.337 13.738 19.252 12.788 19.946C12.408 20.223 12.006 20.471 11.613 20.733C10.408 21.537 10.082 22.48 10.535 23.852L10.579 24C10.0025 23.7525 9.51266 23.3389 9.172 22.812C8.81714 22.2732 8.62801 21.6422 8.628 20.997C8.624 20.677 8.624 20.355 8.58 20.039C8.474 19.27 8.108 18.926 7.419 18.906C6.712 18.886 6.152 19.317 6.004 19.996C5.992 20.049 5.976 20.1 5.959 20.161L5.961 20.162ZM0 15.717C0 15.717 3.24 14.142 6.49 14.142L8.941 6.577C9.033 6.211 9.301 5.963 9.603 5.963C9.905 5.963 10.173 6.211 10.265 6.577L12.715 14.142C16.565 14.142 19.206 15.717 19.206 15.717L13.691 0.727C13.533 0.285 13.266 0 12.906 0H6.3C5.94 0 5.685 0.285 5.516 0.727L0 15.717Z" fill="black"/>
</svg>
