<svg width="24" height="20" viewBox="0 0 24 20" fill="none" xmlns="http://www.w3.org/2000/svg">
<path fill-rule="evenodd" clip-rule="evenodd" d="M4.985 0C3.615 0 2.602 1.199 2.648 2.498C2.691 3.748 2.635 5.365 2.228 6.684C1.818 8.006 1.128 8.844 0 8.952V10.167C1.128 10.274 1.819 11.112 2.227 12.435C2.635 13.754 2.691 15.371 2.647 16.62C2.602 17.92 3.615 19.119 4.985 19.119H19.017C20.387 19.119 21.4 17.92 21.354 16.62C21.311 15.371 21.367 13.754 21.774 12.435C22.183 11.112 22.872 10.275 24 10.167V8.952C22.872 8.844 22.183 8.006 21.774 6.684C21.367 5.364 21.311 3.747 21.354 2.498C21.4 1.198 20.386 0 19.017 0H4.985ZM16.27 11.769C16.27 13.559 14.935 14.644 12.72 14.644H8.949C8.84106 14.644 8.73753 14.6011 8.66121 14.5248C8.58488 14.4485 8.542 14.3449 8.542 14.237V4.881C8.54226 4.77323 8.58526 4.66997 8.66156 4.59385C8.73786 4.51774 8.84123 4.475 8.949 4.475H12.699C14.546 4.475 15.759 5.475 15.759 7.012C15.759 8.09 14.943 9.055 13.904 9.225V9.281C15.319 9.436 16.27 10.416 16.27 11.769ZM12.31 5.764H10.16V8.802H11.971C13.371 8.802 14.143 8.238 14.143 7.23C14.143 6.286 13.479 5.764 12.31 5.764ZM10.16 10.007V13.354H12.39C13.847 13.354 14.62 12.769 14.62 11.67C14.62 10.57 13.826 10.007 12.296 10.007H10.16Z" fill="black"/>
</svg>
