<svg width="512" height="145" viewBox="0 0 512 145" fill="none" xmlns="http://www.w3.org/2000/svg">
<g clip-path="url(#clip0_1101_68)">
<path d="M66.678 46.541C67.829 44.845 69.088 44.629 70.111 44.629C71.134 44.629 72.835 44.845 73.986 46.541C83.056 59.001 98.029 83.818 109.074 102.126C116.276 114.065 121.808 123.234 122.943 124.401C127.203 128.782 133.047 126.051 136.442 121.083C139.785 116.191 140.712 112.756 140.712 109.091C140.712 106.595 92.285 16.529 87.408 9.032C82.718 1.822 81.19 0 73.162 0H67.155C59.152 0 57.995 1.821 53.305 9.032C48.428 16.53 0 106.595 0 109.092C0 112.756 0.928 116.191 4.27 121.082C7.666 126.052 13.51 128.782 17.77 124.402C18.905 123.234 24.437 114.065 31.64 102.126C42.683 83.818 57.607 59 66.677 46.54M387.842 39.395C407.788 39.395 423.649 57.402 423.649 79.674C423.649 101.946 407.788 120.111 387.842 120.111C377.162 120.111 368.839 115.688 363.499 107.632V144.12H341.355V40.974H363.5V51.874C368.84 43.818 377.164 39.394 387.843 39.394M471.953 39.394C494.567 39.395 512 56.77 512 79.832C512 102.894 494.566 120.111 471.953 120.111C449.179 120.111 431.903 102.893 431.903 79.831C431.903 56.77 449.179 39.394 471.953 39.394ZM241.753 7.96V30.39H197.622V50.293H236.885V72.723H197.62V96.1H241.751V118.53H174.377V7.961L241.753 7.96ZM277.786 40.973L290.506 59.296L303.385 40.973H329.77L303.7 78.409L331.654 118.53H304.955L290.35 97.523L275.744 118.531H249.36L277.157 78.568L251.087 40.974L277.786 40.973ZM382.818 60.56C371.981 60.56 363.5 68.932 363.5 79.673C363.5 90.572 371.98 98.786 382.818 98.786C393.497 98.786 402.135 90.414 402.135 79.673C402.135 69.09 393.497 60.56 382.818 60.56ZM471.954 60.718C461.428 60.718 453.578 68.774 453.578 79.831C453.578 90.571 461.428 98.786 471.954 98.786C482.317 98.786 490.329 90.572 490.329 79.831C490.329 68.774 482.317 60.718 471.954 60.718Z" fill="#000020"/>
</g>
<defs>
<clipPath id="clip0_1101_68">
<rect width="512" height="145" fill="white"/>
</clipPath>
</defs>
</svg>
