<svg width="24" height="14" viewBox="0 0 24 14" fill="none" xmlns="http://www.w3.org/2000/svg">
<path d="M24 13.5514C23.6507 13.6833 23.2652 13.6829 22.9162 13.5503C22.5671 13.4177 22.2786 13.162 22.105 12.8314L18.655 8.0604L18.155 7.3934L14.152 12.8374C13.989 13.1543 13.7162 13.4009 13.3845 13.5312C13.0529 13.6615 12.6851 13.6665 12.35 13.5454L17.508 6.6254L12.71 0.374402C13.055 0.250077 13.4323 0.248429 13.7784 0.369735C14.1244 0.491041 14.4181 0.727891 14.61 1.0404L18.186 5.8704L21.782 1.0604C21.9463 0.749189 22.2192 0.50919 22.5488 0.38603C22.8785 0.262871 23.2419 0.265138 23.57 0.392402L21.708 2.8634L19.186 6.1464C19.116 6.20888 19.0599 6.28545 19.0216 6.3711C18.9832 6.45675 18.9634 6.54955 18.9634 6.6434C18.9634 6.73726 18.9832 6.83005 19.0216 6.9157C19.0599 7.00135 19.116 7.07793 19.186 7.1404L23.99 13.5524L24 13.5514ZM0.00201311 6.5394L0.422013 4.4644C1.57601 0.361403 6.28001 -1.3456 9.51601 1.1944C11.411 2.6834 11.884 4.7914 11.791 7.1674H1.11601C0.943013 11.4104 4.00501 13.9724 7.92001 12.6634C8.55458 12.4348 9.12258 12.0524 9.57317 11.5505C10.0238 11.0486 10.3429 10.4429 10.502 9.7874C10.709 9.1214 11.05 9.0074 11.676 9.1994C11.5715 10.0117 11.2842 10.7898 10.8358 11.4751C10.3874 12.1605 9.78948 12.7353 9.08701 13.1564C7.92651 13.7915 6.59485 14.0433 5.28258 13.8757C3.9703 13.7082 2.74466 13.1298 1.78101 12.2234C0.828356 11.1506 0.25245 9.79581 0.141013 8.3654C0.141013 8.1304 0.0610131 7.9104 0.00701311 7.6994C0.00213563 7.31309 -0.000197752 6.92675 1.31065e-05 6.5404L0.00201311 6.5394ZM1.12901 6.2534H10.783C10.723 3.1774 8.78201 0.995402 6.19301 0.975402C3.31101 0.935402 1.24901 3.0694 1.12201 6.2394L1.12901 6.2534Z" fill="black"/>
</svg>
