<svg width="24" height="24" viewBox="0 0 24 24" fill="none" xmlns="http://www.w3.org/2000/svg">
<path fill-rule="evenodd" clip-rule="evenodd" d="M8.66703 9.417C8.32783 9.417 7.99195 9.48381 7.67856 9.61362C7.36518 9.74343 7.08043 9.93369 6.84058 10.1735C6.60072 10.4134 6.41046 10.6981 6.28065 11.0115C6.15084 11.3249 6.08403 11.6608 6.08403 12C6.08403 12.3392 6.15084 12.6751 6.28065 12.9885C6.41046 13.3019 6.60072 13.5866 6.84058 13.8265C7.08043 14.0663 7.36518 14.2566 7.67856 14.3864C7.99195 14.5162 8.32783 14.583 8.66703 14.583H11.25V9.417H8.66703ZM11.25 7.917H8.66703C7.98185 7.917 7.32472 7.64481 6.84022 7.16031C6.35572 6.67581 6.08353 6.01869 6.08353 5.3335C6.08353 4.64831 6.35572 3.99119 6.84022 3.50669C7.32472 3.02219 7.98185 2.75 8.66703 2.75H11.25V7.917ZM12.75 2.75V7.917H15.333C16.0094 7.90369 16.6536 7.62565 17.1272 7.1426C17.6009 6.65955 17.8662 6.01002 17.8662 5.3335C17.8662 4.65698 17.6009 4.00745 17.1272 3.5244C16.6536 3.04135 16.0094 2.76331 15.333 2.75H12.75ZM15.333 9.416C14.655 9.41591 14.0042 9.68242 13.5209 10.158C13.0377 10.6336 12.7608 11.2801 12.75 11.958V12.041C12.7583 12.55 12.9168 13.0452 13.2056 13.4644C13.4944 13.8836 13.9007 14.2081 14.3733 14.3972C14.846 14.5863 15.3639 14.6315 15.8622 14.5271C16.3605 14.4228 16.8168 14.1735 17.1738 13.8107C17.5309 13.4478 17.7727 12.9875 17.869 12.4877C17.9654 11.9878 17.9118 11.4706 17.7151 11.0011C17.5185 10.5315 17.1874 10.1306 16.7636 9.84857C16.3398 9.56656 15.8421 9.41607 15.333 9.416ZM8.66703 16.083C8.15592 16.0828 7.65623 16.2342 7.23117 16.518C6.8061 16.8018 6.47475 17.2053 6.27902 17.6775C6.08328 18.1496 6.03197 18.6692 6.13156 19.1705C6.23115 19.6718 6.47718 20.1323 6.83851 20.4938C7.19985 20.8553 7.66028 21.1015 8.16155 21.2013C8.66283 21.3011 9.18243 21.2499 9.65466 21.0544C10.1269 20.8589 10.5305 20.5277 10.8145 20.1027C11.0985 19.6777 11.25 19.1781 11.25 18.667V16.083H8.66703Z" fill="black"/>
</svg>
