<svg width="10" height="20" viewBox="0 0 10 20" fill="none" xmlns="http://www.w3.org/2000/svg">
<path d="M6.37902 2.22C5.53902 1.22 4.80902 0.22 4.66902 0H4.63902C4.49902 0.21 3.76902 1.22 2.92902 2.22C-4.27098 11.41 4.06902 17.61 4.06902 17.61L4.13902 17.66C4.19902 18.61 4.35902 19.99 4.35902 19.99H4.97902C4.97902 19.99 5.12902 18.62 5.18902 17.66L5.25902 17.6C5.25902 17.6 13.579 11.41 6.37902 2.22ZM4.63902 17.47C4.46384 17.3259 4.30309 17.1652 4.15902 16.99L4.63902 6.99L5.08902 16.99C4.95398 17.1634 4.80335 17.3241 4.63902 17.47Z" fill="black"/>
</svg>
