<svg width="24" height="24" viewBox="0 0 24 24" fill="none" xmlns="http://www.w3.org/2000/svg">
<g clip-path="url(#clip0_1101_59)">
<path d="M14.131 0.0469971C13.958 0.0469971 13.797 0.0839971 13.648 0.133997C13.964 0.343997 14.138 0.623997 14.224 0.939997C14.231 0.982997 14.243 1.014 14.249 1.057C14.2555 1.09406 14.2598 1.13145 14.262 1.169C14.286 1.714 14.119 1.783 14.002 2.105C13.822 2.52 13.872 2.966 14.088 3.325C14.1075 3.37327 14.1323 3.41922 14.162 3.462C13.927 1.894 15.235 1.659 15.476 1.169C15.495 0.740997 15.142 0.455997 14.863 0.257997C14.6438 0.120226 14.39 0.0474128 14.131 0.0479971V0.0469971ZM16.102 0.399997C16.078 0.542997 16.096 0.505997 16.09 0.579997C16.084 0.629997 16.084 0.691997 16.078 0.740997C16.065 0.790997 16.053 0.840997 16.034 0.889997C16.0214 0.939997 16.0047 0.989664 15.984 1.039L15.917 1.181C15.897 1.206 15.886 1.231 15.867 1.256L15.83 1.311C15.8006 1.35352 15.7696 1.39488 15.737 1.435C15.7 1.473 15.669 1.516 15.625 1.547V1.553C15.588 1.584 15.551 1.621 15.507 1.653C15.377 1.752 15.229 1.826 15.092 1.919C15.049 1.949 15.005 1.975 14.968 2.012C14.9262 2.04191 14.8868 2.07501 14.85 2.111C14.807 2.148 14.776 2.185 14.739 2.229C14.708 2.266 14.671 2.309 14.646 2.353C14.6153 2.39518 14.5863 2.43855 14.559 2.483C14.534 2.533 14.516 2.576 14.491 2.625C14.472 2.675 14.454 2.718 14.441 2.768C14.4246 2.81907 14.4103 2.87077 14.398 2.923C14.392 2.948 14.392 2.979 14.386 3.003C14.379 3.028 14.379 3.053 14.373 3.078C14.373 3.128 14.367 3.183 14.367 3.233C14.3657 3.26966 14.3677 3.30666 14.373 3.344C14.373 3.39333 14.3794 3.445 14.392 3.499C14.3987 3.549 14.4087 3.599 14.422 3.649C14.442 3.698 14.454 3.747 14.472 3.797C14.485 3.827 14.503 3.859 14.516 3.884L13.09 3.332C12.849 3.264 12.613 3.202 12.371 3.146L11.981 3.053C11.6077 2.979 11.2317 2.92333 10.853 2.886C10.84 2.886 10.834 2.88 10.822 2.88C10.1833 2.8156 9.5402 2.80723 8.90003 2.855C8.52203 2.88 8.14403 2.929 7.76603 2.991C7.4852 3.03981 7.20605 3.09784 6.92903 3.165L6.65003 3.239C6.55803 3.276 6.47003 3.319 6.38403 3.357L6.17903 3.45C6.16703 3.456 6.15503 3.456 6.14903 3.462C6.08603 3.493 6.03103 3.518 5.97503 3.549C5.89467 3.58485 5.81593 3.62422 5.73903 3.667C5.69603 3.685 5.65303 3.71 5.61503 3.729L5.56003 3.759C5.50336 3.791 5.44936 3.82233 5.39803 3.853C5.34736 3.88183 5.29798 3.91286 5.25003 3.946C5.20603 3.976 5.16303 4.001 5.12603 4.032C5.12003 4.039 5.11303 4.039 5.10703 4.045C5.07003 4.07 5.02703 4.101 4.98903 4.132L4.97703 4.144L4.88403 4.218C4.87203 4.225 4.85903 4.237 4.84703 4.243C4.81603 4.268 4.78503 4.299 4.75403 4.323C4.74803 4.336 4.73503 4.343 4.72903 4.348C4.69203 4.386 4.65503 4.417 4.61803 4.454C4.61103 4.454 4.61103 4.46 4.60503 4.466C4.56669 4.4999 4.52966 4.53526 4.49403 4.572C4.48703 4.578 4.48703 4.584 4.48103 4.584C4.4489 4.61626 4.41788 4.64961 4.38803 4.684C4.37603 4.696 4.35803 4.708 4.34503 4.72C4.31263 4.76 4.27719 4.79745 4.23903 4.832C4.23303 4.844 4.22103 4.851 4.21503 4.862C4.16503 4.912 4.12203 4.962 4.07203 5.012L4.05403 5.03C3.95403 5.136 3.84903 5.241 3.73703 5.334C3.62503 5.434 3.50936 5.525 3.39003 5.607C3.153 5.77606 2.89732 5.91732 2.62803 6.028C2.49803 6.084 2.36103 6.134 2.22503 6.177C1.96503 6.233 1.69803 6.338 1.46903 6.357C1.41903 6.357 1.36403 6.369 1.31403 6.375L1.15903 6.412L1.01003 6.468C0.96003 6.488 0.910697 6.51066 0.86203 6.536C0.81803 6.567 0.76903 6.592 0.72503 6.623C0.680879 6.65489 0.639408 6.69035 0.60103 6.729C0.55803 6.759 0.51403 6.803 0.47703 6.84C0.44003 6.883 0.40303 6.92 0.37203 6.964C0.34103 7.014 0.30403 7.057 0.27903 7.107C0.246132 7.15183 0.217031 7.19933 0.19203 7.249C0.16703 7.305 0.14203 7.355 0.12403 7.41C0.105363 7.46133 0.0866967 7.515 0.06803 7.571C0.05603 7.621 0.04303 7.671 0.03803 7.721C0.03803 7.726 0.03103 7.733 0.03103 7.739C0.01903 7.795 0.01903 7.869 0.01203 7.906C0.00602999 7.95 2.99891e-05 7.986 2.99891e-05 8.03C-0.000997849 8.13782 0.0244096 8.24426 0.07403 8.34V8.346C0.09403 8.38333 0.11703 8.42066 0.14303 8.458C0.166363 8.49533 0.19303 8.53233 0.22303 8.569C0.25403 8.6 0.29103 8.638 0.32903 8.669C0.36544 8.70494 0.404555 8.73804 0.44603 8.768C0.59503 8.898 0.63203 8.941 0.82403 9.04C0.85503 9.059 0.88603 9.071 0.92403 9.09C0.93003 9.09 0.93603 9.096 0.94203 9.096C0.94203 9.109 0.94203 9.115 0.94803 9.127C0.962772 9.22915 0.989628 9.32919 1.02803 9.425C1.04803 9.462 1.06003 9.499 1.07803 9.536C1.0847 9.54933 1.09136 9.55966 1.09803 9.567C1.12203 9.617 1.14703 9.66 1.17103 9.704L1.26403 9.834C1.29503 9.871 1.33303 9.914 1.37003 9.952C1.40703 9.99 1.44403 10.02 1.48803 10.057C1.48803 10.057 1.49403 10.063 1.50003 10.063C1.5367 10.095 1.57403 10.124 1.61203 10.15C1.65519 10.1802 1.70066 10.207 1.74803 10.23C1.79103 10.255 1.84103 10.28 1.89003 10.299C1.93038 10.316 1.9718 10.3304 2.01403 10.342C2.02103 10.348 2.02703 10.348 2.03903 10.354C2.06403 10.361 2.09503 10.367 2.11903 10.373C2.10103 10.708 2.09503 11.023 2.14503 11.135C2.20003 11.259 2.47303 10.881 2.74503 10.447C2.70903 10.875 2.68403 11.377 2.74503 11.526C2.81403 11.681 3.18503 11.197 3.50803 10.664C7.90303 9.648 11.913 12.684 12.334 16.974C12.254 16.304 11.429 15.933 11.051 16.026C10.865 16.484 10.549 17.073 10.041 17.439C10.084 17.029 10.066 16.609 9.97903 16.199C9.84049 16.7698 9.57794 17.3031 9.21003 17.761C8.62203 17.804 8.03303 17.519 7.72303 17.091C7.69803 17.073 7.69203 17.036 7.67303 17.011C7.6537 16.9677 7.63703 16.9243 7.62303 16.881C7.60487 16.8395 7.59242 16.7958 7.58603 16.751C7.5807 16.7083 7.5787 16.6627 7.58003 16.614V16.521C7.58745 16.477 7.59781 16.4336 7.61103 16.391C7.62236 16.3483 7.63703 16.305 7.65503 16.261C7.67903 16.218 7.69803 16.174 7.72903 16.131C7.83403 15.833 7.83403 15.591 7.64203 15.449C7.60412 15.4257 7.5647 15.405 7.52403 15.387C7.50003 15.381 7.46903 15.369 7.44403 15.362L7.39403 15.344C7.35144 15.3308 7.30801 15.3204 7.26403 15.313C7.22172 15.301 7.17801 15.2946 7.13403 15.294C7.08902 15.2869 7.04358 15.2829 6.99803 15.282C6.96703 15.282 6.93603 15.288 6.90503 15.288C6.8587 15.288 6.8126 15.2943 6.76803 15.307C6.72536 15.3123 6.68203 15.3203 6.63803 15.331C6.59374 15.3427 6.5503 15.3574 6.50803 15.375C6.46503 15.393 6.42803 15.412 6.38403 15.431C6.34703 15.449 6.31003 15.474 6.26603 15.493C4.82203 16.435 5.68403 18.641 6.66903 19.28C6.29703 19.348 5.91903 19.428 5.81403 19.509L5.80103 19.521C6.0677 19.681 6.3467 19.8197 6.63803 19.937C7.03503 20.067 7.45603 20.184 7.64203 20.234V20.24C8.15557 20.3454 8.68071 20.3831 9.20403 20.352C11.95 20.16 14.2 18.071 14.609 15.319L14.646 15.48C14.665 15.592 14.689 15.71 14.702 15.827V15.833C14.7127 15.8897 14.721 15.9437 14.727 15.995V16.019C14.7337 16.0757 14.7377 16.1297 14.739 16.181C14.7457 16.249 14.7497 16.317 14.751 16.385V16.485C14.751 16.515 14.758 16.552 14.758 16.583C14.758 16.621 14.751 16.658 14.751 16.695V16.782C14.751 16.825 14.745 16.862 14.745 16.906C14.7464 16.93 14.7444 16.9567 14.739 16.986C14.739 17.03 14.733 17.073 14.733 17.123C14.7284 17.141 14.7264 17.1593 14.727 17.178L14.707 17.321C14.7077 17.3397 14.706 17.3583 14.702 17.377C14.695 17.439 14.683 17.495 14.677 17.557V17.569L14.64 17.743V17.761L14.603 17.928C14.603 17.935 14.596 17.948 14.596 17.953C14.5841 18.0096 14.5698 18.0656 14.553 18.121V18.139C14.533 18.1997 14.5164 18.2577 14.503 18.313C14.4977 18.3197 14.4957 18.3237 14.497 18.325L14.441 18.511C14.417 18.573 14.398 18.629 14.373 18.691C14.348 18.753 14.33 18.815 14.305 18.871C14.28 18.933 14.255 18.988 14.231 19.051H14.224C14.2 19.106 14.174 19.168 14.144 19.224L14.125 19.267C14.119 19.273 14.119 19.28 14.113 19.286C13.7021 20.106 13.1056 20.8188 12.371 21.368C12.321 21.399 12.272 21.437 12.222 21.474C12.21 21.486 12.192 21.492 12.179 21.504C12.1346 21.5366 12.0892 21.5679 12.043 21.598L12.061 21.635H12.068L12.328 21.598H12.334C12.4947 21.572 12.6557 21.543 12.817 21.511C12.861 21.505 12.91 21.492 12.954 21.48L13.041 21.461C13.084 21.455 13.127 21.443 13.171 21.437C13.208 21.424 13.245 21.417 13.282 21.406C13.902 21.256 14.503 21.052 15.08 20.811C14.0847 22.1686 12.7596 23.25 11.23 23.953C11.944 23.903 12.656 23.786 13.344 23.587C15.8344 22.8551 17.9377 21.1745 19.201 18.907C18.9456 20.3422 18.3764 21.7033 17.534 22.893C18.1345 22.4965 18.6896 22.035 19.189 21.517C20.5777 20.0695 21.4887 18.2307 21.799 16.249C22.009 17.229 22.071 18.239 21.979 19.236C26.453 12.995 22.35 6.524 20.633 4.82C20.627 4.807 20.621 4.801 20.621 4.789C20.615 4.795 20.615 4.795 20.615 4.801C20.615 4.795 20.615 4.795 20.608 4.789C20.6067 4.86233 20.6027 4.93666 20.596 5.012C20.579 5.15085 20.5583 5.28923 20.534 5.427C20.504 5.563 20.466 5.7 20.429 5.837C20.385 5.967 20.336 6.103 20.279 6.233C20.2227 6.36154 20.161 6.48765 20.094 6.611C19.9545 6.85326 19.795 7.0834 19.617 7.299C19.524 7.41 19.425 7.509 19.325 7.609C19.2666 7.66243 19.2066 7.71412 19.145 7.764L19.003 7.888C18.8917 7.97439 18.7759 8.05483 18.656 8.129C18.5378 8.20573 18.4157 8.27616 18.29 8.34C18.16 8.40066 18.03 8.45866 17.9 8.514C17.6352 8.61449 17.3612 8.68917 17.082 8.737C16.939 8.762 16.797 8.774 16.66 8.787C16.5612 8.79394 16.4621 8.79794 16.363 8.799C16.2221 8.79662 16.0813 8.78828 15.941 8.774C15.7994 8.76332 15.6587 8.7426 15.52 8.712C15.3794 8.68692 15.2407 8.65183 15.105 8.607H15.098C15.235 8.594 15.371 8.582 15.508 8.557C15.7871 8.50857 16.061 8.43391 16.326 8.334C16.462 8.284 16.592 8.222 16.716 8.16C16.846 8.098 16.964 8.03 17.088 7.956C17.2067 7.87666 17.3224 7.794 17.435 7.708C17.547 7.62133 17.6524 7.52833 17.751 7.429C17.856 7.336 17.949 7.231 18.042 7.125C18.1354 7.01366 18.222 6.90233 18.302 6.791C18.315 6.772 18.328 6.747 18.34 6.729C18.4034 6.629 18.4634 6.52966 18.52 6.431C18.6565 6.18424 18.7684 5.92466 18.854 5.656C18.898 5.526 18.929 5.39 18.96 5.253C18.985 5.111 19.01 4.975 19.022 4.838C19.034 4.696 19.047 4.553 19.047 4.417C19.047 4.317 19.04 4.218 19.034 4.119C19.0215 3.9802 19.0048 3.8418 18.984 3.704C18.9593 3.56442 18.9286 3.42596 18.892 3.289C18.848 3.159 18.805 3.022 18.755 2.892C18.705 2.762 18.644 2.632 18.582 2.508C18.514 2.38333 18.4437 2.26133 18.371 2.142C18.2918 2.0262 18.2091 1.91282 18.123 1.802C18.031 1.69533 17.936 1.58966 17.838 1.485C17.7858 1.43184 17.7321 1.38015 17.677 1.33C17.3957 1.112 17.1084 0.909664 16.815 0.722997C16.7752 0.699487 16.7337 0.67877 16.691 0.660997C16.5073 0.54827 16.3091 0.459816 16.102 0.399997Z" fill="black"/>
</g>
<defs>
<clipPath id="clip0_1101_59">
<rect width="24" height="24" fill="white"/>
</clipPath>
</defs>
</svg>
