<svg width="32" height="32" viewBox="0 0 32 32" fill="none" xmlns="http://www.w3.org/2000/svg">
<path d="M23.749 30.0013C23.63 30.0643 23.64 30.0844 23.754 30.0264C23.7892 30.0122 23.8215 29.9915 23.849 29.9653C23.849 29.9443 23.849 29.9443 23.749 30.0013ZM23.989 29.8713C23.932 29.9183 23.932 29.9184 24 29.8874C24.0247 29.8749 24.0476 29.8591 24.068 29.8403C24.068 29.8133 24.052 29.8193 23.989 29.8713ZM24.145 29.7773C24.088 29.8243 24.088 29.8244 24.156 29.7934C24.1808 29.7806 24.2037 29.7644 24.224 29.7453C24.224 29.7203 24.208 29.7253 24.145 29.7773ZM24.303 29.6843C24.246 29.7313 24.246 29.7313 24.312 29.6993C24.349 29.6793 24.38 29.6583 24.38 29.6523C24.38 29.6273 24.364 29.6323 24.303 29.6843ZM24.516 29.5434C24.407 29.6164 24.369 29.6633 24.469 29.6113C24.536 29.5703 24.65 29.4803 24.63 29.4803C24.587 29.4963 24.551 29.5234 24.515 29.5434H24.516ZM14.953 0.00735003C14.88 0.01235 14.661 0.03235 14.469 0.04835C9.921 0.46035 5.666 2.90835 2.969 6.67935C1.47759 8.74706 0.508681 11.145 0.145 13.6684C0.016 14.5484 0 14.8083 0 16.0013C0 17.1933 0.016 17.4493 0.145 18.3293C1.016 24.3403 5.292 29.3863 11.088 31.2563C12.131 31.5893 13.224 31.8194 14.469 31.9604C14.953 32.0124 17.046 32.0124 17.53 31.9604C19.682 31.7204 21.499 31.1893 23.297 30.2723C23.573 30.1323 23.625 30.0954 23.588 30.0644C22.7109 28.9049 21.8412 27.7399 20.979 26.5693L18.422 23.1164L15.219 18.3713C14.1536 16.7826 13.0772 15.2012 11.99 13.6273C11.979 13.6273 11.965 15.7363 11.959 18.3083C11.948 22.8133 11.948 22.9963 11.891 23.1003C11.8365 23.2261 11.7385 23.328 11.615 23.3874C11.516 23.4344 11.427 23.4443 10.954 23.4443H10.413L10.272 23.3563C10.1838 23.2995 10.1121 23.2206 10.064 23.1273L9.996 22.9863L10.001 16.7153L10.012 10.4444L10.111 10.3194C10.1751 10.2433 10.2527 10.1799 10.34 10.1323C10.471 10.0693 10.523 10.0594 11.064 10.0594C11.699 10.0594 11.804 10.0844 11.971 10.2674C13.2685 12.1972 14.5549 14.1346 15.83 16.0793C17.909 19.2313 20.747 23.5323 22.142 25.6423L24.679 29.4813L24.804 29.3983C26.0229 28.5876 27.1277 27.6173 28.089 26.5133C30.1043 24.2063 31.4121 21.3674 31.856 18.3363C31.985 17.4563 32.001 17.1953 32.001 16.0033C32.001 14.8113 31.985 14.5554 31.856 13.6754C30.985 7.66435 26.709 2.61835 20.913 0.74735C19.8297 0.404382 18.7148 0.170881 17.585 0.05035C17.282 0.01935 15.214 -0.01765 14.954 0.00935003L14.953 0.00735003ZM21.5 9.68435C21.5745 9.72075 21.6409 9.77171 21.6954 9.83424C21.7498 9.89676 21.7912 9.96956 21.817 10.0484C21.844 10.1324 21.849 11.8714 21.844 15.7884L21.833 21.4123L20.844 19.8923L19.849 18.3713V14.2884C19.849 11.6414 19.86 10.1574 19.874 10.0844C19.923 9.91697 20.0352 9.77526 20.187 9.68935C20.311 9.62635 20.359 9.62135 20.854 9.62135C21.317 9.62135 21.396 9.62635 21.5 9.68435Z" fill="black"/>
</svg>
