<svg width="22" height="22" viewBox="0 0 22 22" fill="none" xmlns="http://www.w3.org/2000/svg">
<path d="M15.8047 0C14.9245 0.00823681 14.0493 0.132645 13.2017 0.37L13.1417 0.388C12.608 0.296491 12.0681 0.24601 11.5267 0.237C10.4137 0.218 9.45669 0.48 8.68669 0.917C7.92669 0.661 6.35069 0.22 4.68969 0.308C3.53269 0.369 2.27069 0.71 1.33569 1.668C0.402693 2.626 -0.0903065 4.108 0.0136935 6.125C0.0416935 6.682 0.204693 7.589 0.476693 8.765C0.746693 9.94 1.12869 11.315 1.60369 12.57C2.07869 13.825 2.59969 14.954 3.41369 15.72C3.81969 16.104 4.37869 16.427 5.03769 16.4C5.50069 16.382 5.91969 16.185 6.28069 15.894C6.45669 16.119 6.64469 16.217 6.81569 16.308C7.03069 16.422 7.24069 16.5 7.45769 16.552C8.05862 16.7061 8.6845 16.737 9.29769 16.643C9.56469 16.6 9.84569 16.516 10.1257 16.396C10.1357 16.698 10.1477 16.994 10.1607 17.294C10.1987 18.244 10.2237 19.121 10.5177 19.89C10.5647 20.016 10.6937 20.663 11.2047 21.234C11.7147 21.806 12.7147 22.162 13.8527 21.926C14.6557 21.759 15.6777 21.458 16.3557 20.522C17.0257 19.596 17.3287 18.268 17.3887 16.113C17.4037 15.997 17.4217 15.898 17.4407 15.805L17.6007 15.819H17.6187C18.4757 15.857 19.4057 15.739 20.1827 15.389C20.8707 15.079 21.3907 14.767 21.7697 14.212C21.8647 14.075 21.9687 13.909 21.9967 13.622C22.0247 13.337 21.8567 12.889 21.5757 12.683C21.0127 12.269 20.6597 12.426 20.2807 12.503C19.9074 12.583 19.5287 12.6273 19.1447 12.636C20.2377 10.852 21.0207 8.956 21.4677 7.278C21.7317 6.288 21.8807 5.375 21.8927 4.577C21.9047 3.779 21.8377 3.072 21.3447 2.46C19.8037 0.55 17.6367 0.0219999 15.9607 0.00399995C15.9087 0.00266662 15.8567 0.00233335 15.8047 0.00300002V0ZM15.7607 0.587C17.3457 0.572 19.3717 1.004 20.8257 2.807C21.1527 3.212 21.2497 3.804 21.2387 4.534C21.2267 5.263 21.0877 6.135 20.8337 7.091C20.3407 8.943 19.4087 11.101 18.0957 13.039C18.1423 13.0713 18.1927 13.0978 18.2457 13.118C18.5197 13.228 19.1437 13.322 20.3907 13.074C20.7037 13.009 20.9337 12.966 21.1717 13.142C21.2286 13.1893 21.2739 13.2491 21.3039 13.3167C21.3339 13.3844 21.3479 13.4581 21.3447 13.532C21.3315 13.6437 21.289 13.7499 21.2217 13.84C20.9817 14.191 20.5057 14.524 19.8957 14.798C19.3567 15.042 18.5827 15.169 17.8967 15.177C17.5527 15.18 17.2357 15.154 16.9667 15.073L16.9487 15.067C16.8447 16.038 16.6057 17.957 16.4507 18.832C16.3257 19.538 16.1077 20.099 15.6907 20.519C15.2747 20.939 14.6867 21.192 13.8947 21.357C12.9137 21.561 12.1987 21.341 11.7377 20.964C11.2777 20.589 11.0667 20.09 10.9397 19.784C10.8527 19.574 10.8077 19.301 10.7637 18.936C10.7153 18.499 10.683 18.0604 10.6667 17.621C10.638 16.8507 10.6287 16.0798 10.6387 15.309C10.2287 15.672 9.71869 15.914 9.17169 16.005C8.52169 16.112 7.93969 16.007 7.59269 15.923C7.42258 15.8811 7.25808 15.819 7.10269 15.738C6.94069 15.655 6.78769 15.561 6.68569 15.375C6.6256 15.2688 6.60639 15.1443 6.63169 15.025C6.66444 14.9038 6.73699 14.797 6.83769 14.722C7.02569 14.574 7.27269 14.492 7.64569 14.416C8.32569 14.281 8.56269 14.188 8.70669 14.077C8.82969 13.982 8.96869 13.79 9.21469 13.507L9.21169 13.47C8.77328 13.4571 8.3435 13.345 7.95469 13.142C7.81369 13.286 7.08969 14.029 6.20669 15.059C5.83569 15.49 5.42569 15.737 4.99269 15.755C4.55969 15.773 4.16869 15.561 3.83669 15.249C3.17169 14.623 2.64169 13.546 2.17969 12.329C1.71969 11.111 1.34369 9.755 1.07769 8.6C0.809694 7.445 0.651693 6.514 0.629693 6.065C0.529693 4.156 0.989693 2.87 1.77969 2.059C2.56969 1.248 3.65169 0.94 4.70769 0.882C6.60169 0.776 8.40069 1.417 8.76469 1.555C9.46569 1.093 10.3687 0.805 11.4977 0.823C12.0328 0.830442 12.5654 0.897523 13.0857 1.023L13.1047 1.015C13.334 0.937 13.5667 0.871667 13.8027 0.819C14.4452 0.673984 15.1011 0.596894 15.7597 0.589L15.7607 0.587ZM15.9037 1.201H15.7667C15.2256 1.20829 14.6865 1.26722 14.1567 1.377C15.2084 1.83508 16.1325 2.54289 16.8487 3.439C17.2826 3.9751 17.6425 4.56706 17.9187 5.199C18.0227 5.441 18.0927 5.646 18.1317 5.804C18.1517 5.884 18.1657 5.951 18.1697 6.021C18.1734 6.06531 18.1697 6.10992 18.1587 6.153L18.1527 6.165C18.1817 6.968 17.9767 7.512 17.9517 8.278C17.9327 8.834 18.0787 9.487 18.1147 10.198C18.1487 10.868 18.0657 11.603 17.6177 12.325C17.655 12.369 17.691 12.413 17.7257 12.457C18.9107 10.647 19.7657 8.643 20.2207 6.936C20.4637 6.016 20.5937 5.183 20.6047 4.523C20.6147 3.863 20.4877 3.384 20.3257 3.185C19.0577 1.612 17.3427 1.212 15.9037 1.201ZM11.3787 1.435C10.2617 1.437 9.45969 1.765 8.85269 2.255C8.22569 2.762 7.80569 3.455 7.52969 4.166C7.26254 4.87653 7.0992 5.62186 7.04469 6.379L7.05769 6.372C7.39469 6.188 7.83769 6.005 8.31169 5.899C8.78669 5.793 9.29769 5.76 9.76069 5.934C10.2237 6.108 10.6067 6.518 10.7457 7.14C11.4107 10.126 10.5387 11.236 10.2167 12.073C10.0959 12.3768 9.99174 12.6869 9.90469 13.002C9.94469 12.9907 9.98503 12.9827 10.0257 12.978C10.2014 12.9685 10.3766 13.0029 10.5357 13.078C10.8597 13.208 11.0817 13.48 11.2017 13.792C11.233 13.8747 11.2554 13.9613 11.2687 14.052C11.282 14.09 11.2884 14.129 11.2877 14.169C11.2518 15.3108 11.2558 16.4535 11.2997 17.595C11.3217 18.089 11.3537 18.523 11.3947 18.866C11.4347 19.208 11.4927 19.468 11.5297 19.556C11.6497 19.85 11.8267 20.234 12.1467 20.495C12.4667 20.756 12.9237 20.929 13.7607 20.755C14.4867 20.604 14.9347 20.395 15.2347 20.092C15.5327 19.791 15.7117 19.372 15.8257 18.729C15.9967 17.766 16.3407 14.975 16.3817 14.449C16.3637 14.054 16.4237 13.749 16.5537 13.517C16.6887 13.279 16.8967 13.133 17.0757 13.054C17.1657 13.014 17.2497 12.988 17.3187 12.969C17.2452 12.8673 17.1685 12.7679 17.0887 12.671C16.8301 12.3685 16.6181 12.0291 16.4597 11.664C16.3834 11.5138 16.3023 11.3661 16.2167 11.221C16.0917 11.001 15.9327 10.726 15.7667 10.417C15.4337 9.798 15.0717 9.048 14.8837 8.317C14.6967 7.588 14.6687 6.833 15.1487 6.3C15.5747 5.827 16.3207 5.631 17.4417 5.741C17.4087 5.645 17.3887 5.565 17.3327 5.437C17.0797 4.85599 16.749 4.31202 16.3497 3.82C15.3997 2.642 13.8627 1.474 11.4867 1.436H11.3787V1.435ZM5.10269 1.482C4.98269 1.482 4.86269 1.48533 4.74269 1.492C3.78869 1.545 2.88669 1.814 2.24169 2.478C1.59469 3.141 1.16969 4.229 1.26169 6.031C1.28069 6.371 1.43369 7.327 1.69569 8.461C1.95769 9.597 2.32969 10.932 2.77569 12.111C3.22169 13.291 3.76369 14.318 4.27769 14.804C4.53669 15.047 4.76169 15.145 4.96569 15.137C5.17069 15.127 5.41669 15.013 5.71869 14.662C6.26869 14.0184 6.83897 13.3924 7.42869 12.785C7.01202 12.4356 6.69126 11.9858 6.49669 11.478C6.30371 10.9751 6.24511 10.4305 6.32669 9.898C6.42369 9.22 6.43669 8.586 6.42569 8.086C6.41369 7.598 6.37769 7.274 6.37769 7.071V7.043C6.37666 5.98614 6.56602 4.93773 6.93669 3.948C7.20069 3.266 7.59469 2.573 8.18569 2.012C7.60569 1.827 6.57569 1.545 5.46069 1.492C5.3408 1.48558 5.22076 1.48225 5.10069 1.482H5.10269ZM16.8167 6.324C16.1757 6.332 15.8157 6.493 15.6267 6.703C15.3587 7.001 15.3337 7.523 15.4997 8.167C15.6657 8.811 16.0067 9.532 16.3287 10.13C16.4887 10.43 16.6447 10.7 16.7707 10.918C16.8977 11.138 16.9907 11.294 17.0467 11.428C17.1 11.5487 17.156 11.659 17.2147 11.759C17.4627 11.25 17.5077 10.751 17.4817 10.23C17.4487 9.586 17.2947 8.927 17.3177 8.26C17.3427 7.48 17.5017 6.971 17.5157 6.368C17.2837 6.33974 17.0504 6.32504 16.8167 6.324ZM9.03669 6.429C8.8408 6.43049 8.64565 6.45329 8.45469 6.497C8.07504 6.58651 7.70863 6.72501 7.36469 6.909C7.24936 6.969 7.13936 7.03867 7.03469 7.118L7.01469 7.136C7.02069 7.27 7.04769 7.595 7.05969 8.072C7.06969 8.595 7.05769 9.262 6.95369 9.982C6.72769 11.55 7.89969 12.848 9.27769 12.85C9.35769 12.528 9.49069 12.202 9.62269 11.858C10.0067 10.855 10.7617 10.124 10.1257 7.269C10.0217 6.802 9.81569 6.613 9.53169 6.506C9.37266 6.45078 9.20498 6.4247 9.03669 6.429ZM16.5167 6.616H16.5647C16.6274 6.618 16.684 6.62467 16.7347 6.636C16.7807 6.64525 16.8247 6.66251 16.8647 6.687C16.8829 6.69773 16.8986 6.71218 16.9109 6.72941C16.9231 6.74665 16.9316 6.76627 16.9357 6.787V6.795C16.9383 6.83895 16.9264 6.88254 16.9017 6.919C16.8738 6.96942 16.8388 7.01556 16.7977 7.056C16.7008 7.15884 16.573 7.22729 16.4337 7.251C16.2971 7.26717 16.1593 7.23343 16.0457 7.156C16 7.12579 15.9586 7.08945 15.9227 7.048C15.8924 7.01562 15.8716 6.97547 15.8627 6.932C15.8605 6.91061 15.863 6.88901 15.8699 6.86865C15.8768 6.84829 15.888 6.82965 15.9027 6.814C15.9347 6.78044 15.9722 6.7527 16.0137 6.732C16.1721 6.65928 16.3435 6.61915 16.5177 6.614L16.5167 6.616ZM9.12869 6.77C9.17869 6.77 9.23103 6.774 9.28569 6.782C9.42969 6.802 9.55869 6.839 9.65669 6.894C9.70469 6.91867 9.74669 6.951 9.78269 6.991C9.80136 7.013 9.81536 7.03733 9.82469 7.064C9.83403 7.09067 9.83703 7.11833 9.83369 7.147C9.8246 7.20002 9.79988 7.24912 9.76269 7.288C9.72401 7.33458 9.67849 7.37504 9.62769 7.408C9.50351 7.49257 9.35284 7.52918 9.20369 7.511C9.05237 7.48657 8.91325 7.41314 8.80769 7.302C8.76381 7.25724 8.72614 7.20679 8.69569 7.152C8.66455 7.10405 8.65079 7.04687 8.65669 6.99C8.67069 6.89 8.75569 6.84 8.83669 6.81C8.93033 6.7803 9.02864 6.76809 9.12669 6.774L9.12869 6.77ZM17.6887 13.502H17.6857C17.5467 13.552 17.4327 13.572 17.3357 13.612C17.2391 13.6478 17.159 13.718 17.1107 13.809C17.0507 13.914 17.0007 14.101 17.0157 14.419C17.0588 14.4474 17.106 14.469 17.1557 14.483C17.3167 14.531 17.5877 14.563 17.8907 14.558C18.4927 14.551 19.2347 14.415 19.6287 14.237C19.9517 14.091 20.2517 13.901 20.5197 13.673C19.2027 13.937 18.4597 13.867 18.0027 13.684C17.89 13.638 17.7843 13.5774 17.6887 13.502ZM10.1007 13.587H10.0807C10.0307 13.591 9.95769 13.607 9.81769 13.759C9.48769 14.117 9.37369 14.341 9.10169 14.551C8.83169 14.761 8.47869 14.872 7.77469 15.012C7.55169 15.056 7.42469 15.105 7.33869 15.144C7.36669 15.166 7.36369 15.172 7.40469 15.193C7.50769 15.248 7.64069 15.296 7.74669 15.323C8.04969 15.396 8.54669 15.482 9.06569 15.396C9.58469 15.31 10.1237 15.069 10.5837 14.443C10.6637 14.335 10.6717 14.175 10.6067 14.003C10.5397 13.833 10.3957 13.685 10.2937 13.643C10.2328 13.6143 10.1676 13.5961 10.1007 13.589V13.587Z" fill="black"/>
</svg>
