<svg width="24" height="24" viewBox="0 0 24 24" fill="none" xmlns="http://www.w3.org/2000/svg">
<g clip-path="url(#clip0_1101_61)">
<mask id="mask0_1101_61" style="mask-type:luminance" maskUnits="userSpaceOnUse" x="0" y="0" width="24" height="24">
<path d="M0 0H24V24H0V0Z" fill="white"/>
</mask>
<g mask="url(#mask0_1101_61)">
<path d="M16.6302 16.563C17.5152 16.471 18.1872 15.7 18.1572 14.775C18.1423 14.3304 17.9559 13.9088 17.6372 13.5985C17.3185 13.2881 16.8921 13.1131 16.4472 13.11H16.3852C15.4382 13.14 14.7052 13.942 14.7352 14.898C14.7672 15.361 14.9502 15.761 15.2252 16.038C14.1862 18.105 12.5982 19.615 10.2152 20.879C8.59725 21.743 6.91725 22.051 5.23825 21.835C3.86325 21.65 2.79425 21.033 2.12225 20.016C1.14525 18.506 1.05425 16.871 1.87825 15.237C2.45825 14.066 3.37525 13.202 3.95525 12.771C3.79796 12.2533 3.66547 11.7284 3.55825 11.198C-0.870752 14.436 -0.411752 18.814 0.930248 20.88C1.93825 22.422 3.98425 23.378 6.24525 23.378C6.86248 23.3817 7.4778 23.3091 8.07725 23.162C11.9872 22.392 14.9492 20.048 16.6292 16.564M22.0042 12.741C19.6832 9.997 16.2622 8.486 12.3532 8.486H11.8642C11.7247 8.20864 11.5111 7.97536 11.247 7.81208C10.9829 7.6488 10.6787 7.56189 10.3682 7.561H10.3062C9.36025 7.592 8.62625 8.394 8.65725 9.35C8.68725 10.275 9.45125 11.014 10.3672 11.014H10.4292C10.7519 10.9974 11.0633 10.8903 11.3279 10.705C11.5924 10.5196 11.7995 10.2635 11.9252 9.966H12.4752C14.7962 9.966 16.9952 10.644 18.9802 11.97C20.5072 12.988 21.6072 14.313 22.2172 15.917C22.7372 17.211 22.7072 18.475 22.1572 19.555C21.3012 21.189 19.8662 22.083 17.9722 22.083C16.7512 22.083 15.5902 21.713 14.9792 21.435C14.5397 21.8273 14.0811 22.1977 13.6052 22.545C14.9182 23.162 16.2622 23.501 17.5452 23.501C20.4772 23.501 22.6452 21.867 23.4702 20.233C24.3552 18.445 24.2942 15.362 22.0042 12.741ZM6.49025 17.087C6.52025 18.012 7.28425 18.752 8.20025 18.752H8.26125C9.20825 18.722 9.94125 17.92 9.91125 16.964C9.89628 16.5194 9.70994 16.0978 9.39122 15.7875C9.07249 15.4771 8.64609 15.3021 8.20125 15.299H8.13925C8.06658 15.2933 7.99354 15.3035 7.92525 15.329C6.67325 13.233 6.15425 10.952 6.33725 8.485C6.45925 6.635 7.07025 5.032 8.13925 3.706C9.02525 2.566 10.7352 2.011 11.8962 1.98C15.1332 1.918 16.5072 5.988 16.5992 7.622C16.9962 7.714 17.6682 7.93 18.1262 8.084C17.7592 3.09 14.7062 0.5 11.7732 0.5C9.02525 0.5 6.49025 2.504 5.48225 5.464C4.07725 9.41 4.99325 13.202 6.70425 16.193C6.55125 16.409 6.45925 16.748 6.49025 17.087Z" fill="black"/>
</g>
</g>
<defs>
<clipPath id="clip0_1101_61">
<rect width="24" height="24" fill="white"/>
</clipPath>
</defs>
</svg>
