<svg width="20" height="12" viewBox="0 0 20 12" fill="none" xmlns="http://www.w3.org/2000/svg">
<path d="M10 0C7.33 0 5.67 1.33 5 4C6 2.67 7.17 2.17 8.5 2.5C9.26 2.69 9.81 3.24 10.41 3.85C11.39 4.85 12.5 6 15 6C17.67 6 19.33 4.67 20 2C19 3.33 17.83 3.83 16.5 3.5C15.74 3.31 15.2 2.76 14.59 2.15C13.61 1.15 12.5 0 10 0ZM5 6C2.33 6 0.67 7.33 0 10C1 8.67 2.17 8.17 3.5 8.5C4.26 8.69 4.8 9.24 5.41 9.85C6.39 10.85 7.5 12 10 12C12.67 12 14.33 10.67 15 8C14 9.33 12.83 9.83 11.5 9.5C10.74 9.31 10.2 8.76 9.59 8.15C8.61 7.15 7.5 6 5 6Z" fill="black"/>
</svg>
