<svg width="24" height="24" viewBox="0 0 24 24" fill="none" xmlns="http://www.w3.org/2000/svg">
<mask id="mask0_1099_53" style="mask-type:luminance" maskUnits="userSpaceOnUse" x="0" y="0" width="24" height="24">
<path d="M0 0H24V24H0V0Z" fill="white"/>
</mask>
<g mask="url(#mask0_1099_53)">
<path d="M23.429 3.50909e-06H0.570001C0.495063 3.39377e-06 0.420861 0.01478 0.35164 0.0434876C0.282419 0.0721953 0.219539 0.114271 0.166596 0.167306C0.113654 0.220341 0.0716885 0.283296 0.0431022 0.352567C0.0145159 0.421838 -0.000130591 0.496066 8.78816e-07 0.571003V23.43C-0.000130854 23.505 0.0145486 23.5793 0.0431974 23.6487C0.0718461 23.718 0.113901 23.781 0.166949 23.8341C0.219998 23.8871 0.282996 23.9292 0.352333 23.9578C0.421669 23.9865 0.495979 24.0011 0.571001 24.001H23.43C23.505 24.0011 23.5793 23.9865 23.6487 23.9578C23.718 23.9292 23.781 23.8871 23.8341 23.8341C23.8871 23.781 23.9292 23.718 23.9578 23.6487C23.9865 23.5793 24.0011 23.505 24.001 23.43V0.570004C24.001 0.494981 23.9862 0.420697 23.9574 0.351411C23.9287 0.282125 23.8865 0.219199 23.8333 0.166244C23.7802 0.113288 23.7171 0.0713441 23.6477 0.0428168C23.5784 0.0142895 23.504 -0.000259726 23.429 3.50909e-06ZM14.286 12.826H11.429V21.714H9.143V12.826H6.286V10.857H14.286V12.826ZM14.926 21.206V18.831C14.926 18.831 16.224 19.809 17.781 19.809C19.338 19.809 19.278 18.791 19.278 18.651C19.278 17.174 14.866 17.174 14.866 13.9C14.866 9.448 21.295 11.205 21.295 11.205L21.215 13.321C21.215 13.321 20.137 12.602 18.919 12.602C17.701 12.602 17.262 13.182 17.262 13.8C17.262 15.397 21.714 15.238 21.714 18.452C21.714 23.402 14.926 21.207 14.926 21.207" fill="black"/>
</g>
</svg>
